<?xml version="1.0" encoding="UTF-8"?>
<svg xmlns="http://www.w3.org/2000/svg" viewBox="0 0 1200 340" width="1200" height="340">
  <defs>
    <linearGradient id="bg" x1="0" y1="0" x2="1" y2="1">
      <stop offset="0%" stop-color="#050505"/>
      <stop offset="45%" stop-color="#140202"/>
      <stop offset="100%" stop-color="#330000"/>
    </linearGradient>
    <filter id="glow" x="-50%" y="-50%" width="200%" height="200%">
      <feGaussianBlur stdDeviation="5" result="blur"/>
      <feMerge>
        <feMergeNode in="blur"/>
        <feMergeNode in="SourceGraphic"/>
      </feMerge>
    </filter>
    <clipPath id="slice1">
      <rect x="0" y="115" width="1200" height="22"/>
    </clipPath>
    <clipPath id="slice2">
      <rect x="0" y="175" width="1200" height="28"/>
    </clipPath>
    <clipPath id="slice3">
      <rect x="0" y="225" width="1200" height="12"/>
    </clipPath>
  </defs>

  <rect width="1200" height="340" fill="url(#bg)"/>

  <g opacity="0.07">
    <line x1="0" y1="0" x2="1200" y2="0" stroke="#ff003c" stroke-width="1"/>
    <line x1="0" y1="4" x2="1200" y2="4" stroke="#ff003c" stroke-width="1"/>
    <line x1="0" y1="8" x2="1200" y2="8" stroke="#ff003c" stroke-width="1"/>
    <line x1="0" y1="12" x2="1200" y2="12" stroke="#ff003c" stroke-width="1"/>
    <line x1="0" y1="16" x2="1200" y2="16" stroke="#ff003c" stroke-width="1"/>
    <line x1="0" y1="20" x2="1200" y2="20" stroke="#ff003c" stroke-width="1"/>
    <line x1="0" y1="24" x2="1200" y2="24" stroke="#ff003c" stroke-width="1"/>
    <line x1="0" y1="28" x2="1200" y2="28" stroke="#ff003c" stroke-width="1"/>
    <line x1="0" y1="32" x2="1200" y2="32" stroke="#ff003c" stroke-width="1"/>
    <line x1="0" y1="36" x2="1200" y2="36" stroke="#ff003c" stroke-width="1"/>
    <line x1="0" y1="40" x2="1200" y2="40" stroke="#ff003c" stroke-width="1"/>
    <line x1="0" y1="44" x2="1200" y2="44" stroke="#ff003c" stroke-width="1"/>
    <line x1="0" y1="48" x2="1200" y2="48" stroke="#ff003c" stroke-width="1"/>
    <line x1="0" y1="52" x2="1200" y2="52" stroke="#ff003c" stroke-width="1"/>
    <line x1="0" y1="56" x2="1200" y2="56" stroke="#ff003c" stroke-width="1"/>
    <line x1="0" y1="60" x2="1200" y2="60" stroke="#ff003c" stroke-width="1"/>
    <line x1="0" y1="64" x2="1200" y2="64" stroke="#ff003c" stroke-width="1"/>
    <line x1="0" y1="68" x2="1200" y2="68" stroke="#ff003c" stroke-width="1"/>
    <line x1="0" y1="72" x2="1200" y2="72" stroke="#ff003c" stroke-width="1"/>
    <line x1="0" y1="76" x2="1200" y2="76" stroke="#ff003c" stroke-width="1"/>
    <line x1="0" y1="80" x2="1200" y2="80" stroke="#ff003c" stroke-width="1"/>
    <line x1="0" y1="84" x2="1200" y2="84" stroke="#ff003c" stroke-width="1"/>
    <line x1="0" y1="88" x2="1200" y2="88" stroke="#ff003c" stroke-width="1"/>
    <line x1="0" y1="92" x2="1200" y2="92" stroke="#ff003c" stroke-width="1"/>
    <line x1="0" y1="96" x2="1200" y2="96" stroke="#ff003c" stroke-width="1"/>
    <line x1="0" y1="100" x2="1200" y2="100" stroke="#ff003c" stroke-width="1"/>
    <line x1="0" y1="104" x2="1200" y2="104" stroke="#ff003c" stroke-width="1"/>
    <line x1="0" y1="108" x2="1200" y2="108" stroke="#ff003c" stroke-width="1"/>
    <line x1="0" y1="112" x2="1200" y2="112" stroke="#ff003c" stroke-width="1"/>
    <line x1="0" y1="116" x2="1200" y2="116" stroke="#ff003c" stroke-width="1"/>
    <line x1="0" y1="120" x2="1200" y2="120" stroke="#ff003c" stroke-width="1"/>
    <line x1="0" y1="124" x2="1200" y2="124" stroke="#ff003c" stroke-width="1"/>
    <line x1="0" y1="128" x2="1200" y2="128" stroke="#ff003c" stroke-width="1"/>
    <line x1="0" y1="132" x2="1200" y2="132" stroke="#ff003c" stroke-width="1"/>
    <line x1="0" y1="136" x2="1200" y2="136" stroke="#ff003c" stroke-width="1"/>
    <line x1="0" y1="140" x2="1200" y2="140" stroke="#ff003c" stroke-width="1"/>
    <line x1="0" y1="144" x2="1200" y2="144" stroke="#ff003c" stroke-width="1"/>
    <line x1="0" y1="148" x2="1200" y2="148" stroke="#ff003c" stroke-width="1"/>
    <line x1="0" y1="152" x2="1200" y2="152" stroke="#ff003c" stroke-width="1"/>
    <line x1="0" y1="156" x2="1200" y2="156" stroke="#ff003c" stroke-width="1"/>
    <line x1="0" y1="160" x2="1200" y2="160" stroke="#ff003c" stroke-width="1"/>
    <line x1="0" y1="164" x2="1200" y2="164" stroke="#ff003c" stroke-width="1"/>
    <line x1="0" y1="168" x2="1200" y2="168" stroke="#ff003c" stroke-width="1"/>
    <line x1="0" y1="172" x2="1200" y2="172" stroke="#ff003c" stroke-width="1"/>
    <line x1="0" y1="176" x2="1200" y2="176" stroke="#ff003c" stroke-width="1"/>
    <line x1="0" y1="180" x2="1200" y2="180" stroke="#ff003c" stroke-width="1"/>
    <line x1="0" y1="184" x2="1200" y2="184" stroke="#ff003c" stroke-width="1"/>
    <line x1="0" y1="188" x2="1200" y2="188" stroke="#ff003c" stroke-width="1"/>
    <line x1="0" y1="192" x2="1200" y2="192" stroke="#ff003c" stroke-width="1"/>
    <line x1="0" y1="196" x2="1200" y2="196" stroke="#ff003c" stroke-width="1"/>
    <line x1="0" y1="200" x2="1200" y2="200" stroke="#ff003c" stroke-width="1"/>
    <line x1="0" y1="204" x2="1200" y2="204" stroke="#ff003c" stroke-width="1"/>
    <line x1="0" y1="208" x2="1200" y2="208" stroke="#ff003c" stroke-width="1"/>
    <line x1="0" y1="212" x2="1200" y2="212" stroke="#ff003c" stroke-width="1"/>
    <line x1="0" y1="216" x2="1200" y2="216" stroke="#ff003c" stroke-width="1"/>
    <line x1="0" y1="220" x2="1200" y2="220" stroke="#ff003c" stroke-width="1"/>
    <line x1="0" y1="224" x2="1200" y2="224" stroke="#ff003c" stroke-width="1"/>
    <line x1="0" y1="228" x2="1200" y2="228" stroke="#ff003c" stroke-width="1"/>
    <line x1="0" y1="232" x2="1200" y2="232" stroke="#ff003c" stroke-width="1"/>
    <line x1="0" y1="236" x2="1200" y2="236" stroke="#ff003c" stroke-width="1"/>
    <line x1="0" y1="240" x2="1200" y2="240" stroke="#ff003c" stroke-width="1"/>
    <line x1="0" y1="244" x2="1200" y2="244" stroke="#ff003c" stroke-width="1"/>
    <line x1="0" y1="248" x2="1200" y2="248" stroke="#ff003c" stroke-width="1"/>
    <line x1="0" y1="252" x2="1200" y2="252" stroke="#ff003c" stroke-width="1"/>
    <line x1="0" y1="256" x2="1200" y2="256" stroke="#ff003c" stroke-width="1"/>
    <line x1="0" y1="260" x2="1200" y2="260" stroke="#ff003c" stroke-width="1"/>
    <line x1="0" y1="264" x2="1200" y2="264" stroke="#ff003c" stroke-width="1"/>
    <line x1="0" y1="268" x2="1200" y2="268" stroke="#ff003c" stroke-width="1"/>
    <line x1="0" y1="272" x2="1200" y2="272" stroke="#ff003c" stroke-width="1"/>
    <line x1="0" y1="276" x2="1200" y2="276" stroke="#ff003c" stroke-width="1"/>
    <line x1="0" y1="280" x2="1200" y2="280" stroke="#ff003c" stroke-width="1"/>
    <line x1="0" y1="284" x2="1200" y2="284" stroke="#ff003c" stroke-width="1"/>
    <line x1="0" y1="288" x2="1200" y2="288" stroke="#ff003c" stroke-width="1"/>
    <line x1="0" y1="292" x2="1200" y2="292" stroke="#ff003c" stroke-width="1"/>
    <line x1="0" y1="296" x2="1200" y2="296" stroke="#ff003c" stroke-width="1"/>
    <line x1="0" y1="300" x2="1200" y2="300" stroke="#ff003c" stroke-width="1"/>
    <line x1="0" y1="304" x2="1200" y2="304" stroke="#ff003c" stroke-width="1"/>
    <line x1="0" y1="308" x2="1200" y2="308" stroke="#ff003c" stroke-width="1"/>
    <line x1="0" y1="312" x2="1200" y2="312" stroke="#ff003c" stroke-width="1"/>
    <line x1="0" y1="316" x2="1200" y2="316" stroke="#ff003c" stroke-width="1"/>
    <line x1="0" y1="320" x2="1200" y2="320" stroke="#ff003c" stroke-width="1"/>
    <line x1="0" y1="324" x2="1200" y2="324" stroke="#ff003c" stroke-width="1"/>
    <line x1="0" y1="328" x2="1200" y2="328" stroke="#ff003c" stroke-width="1"/>
    <line x1="0" y1="332" x2="1200" y2="332" stroke="#ff003c" stroke-width="1"/>
    <line x1="0" y1="336" x2="1200" y2="336" stroke="#ff003c" stroke-width="1"/>
    <line x1="0" y1="340" x2="1200" y2="340" stroke="#ff003c" stroke-width="1"/>
  </g>

  <polyline points="40,40 40,85 85,85" fill="none" stroke="#ff003c" stroke-width="3" opacity="0.9"/>
  <polyline points="1160,40 1160,85 1115,85" fill="none" stroke="#ff003c" stroke-width="3" opacity="0.9"/>
  <polyline points="40,300 40,255 85,255" fill="none" stroke="#ff003c" stroke-width="3" opacity="0.9"/>
  <polyline points="1160,300 1160,255 1115,255" fill="none" stroke="#ff003c" stroke-width="3" opacity="0.9"/>

  <text x="604" y="200" font-family="Courier New, monospace" font-size="120" font-weight="900" fill="#00ffff" text-anchor="middle" opacity="0.55" clip-path="url(#slice1)">AS-UR-a</text>
  <text x="598" y="200" font-family="Courier New, monospace" font-size="120" font-weight="900" fill="#ff00aa" text-anchor="middle" opacity="0.5" clip-path="url(#slice2)">AS-UR-a</text>
  <text x="600" y="200" font-family="Courier New, monospace" font-size="120" font-weight="900" fill="#ff003c" text-anchor="middle" opacity="0.35" clip-path="url(#slice3)" transform="translate(-4,0)">AS-UR-a</text>

  <text x="600" y="200" font-family="Courier New, monospace" font-size="120" font-weight="900" fill="#ff003c" text-anchor="middle" filter="url(#glow)">AS-UR-a</text>

  <rect x="140" y="158" width="320" height="8" fill="#ff003c" opacity="0.35"/>
  <rect x="780" y="232" width="260" height="6" fill="#00ffff" opacity="0.25"/>
  <rect x="420" y="128" width="160" height="4" fill="#ffffff" opacity="0.4"/>
  <rect x="650" y="242" width="90" height="3" fill="#ff003c" opacity="0.5"/>

  <text x="600" y="278" font-family="Courier New, monospace" font-size="21" fill="#a0a0a0" text-anchor="middle">CS Student // Systems // Backend // Self-Dev Tools</text>
</svg>